<svg xmlns="http://www.w3.org/2000/svg" xmlns:svg="http://www.w3.org/2000/svg" id="svg10" width="800" height="800" version="1.1" viewBox="0 0 800 800" xml:space="preserve"><metadata id="metadata16"/><g id="g18" transform="matrix(1.3333333,0,0,-1.3333333,0,800)"><g id="g20" transform="scale(0.1)"><path id="path22" d="M 3000,0 C 4652.34,0 6000.01,1347.66 6000.01,3000 6000.01,4652.35 4652.34,6000 3000,6000 1347.66,6000 0,4652.35 0,3000 0,1347.66 1347.66,0 3000,0" style="fill:#96b85e;fill-opacity:1;fill-rule:evenodd;stroke:none"/><path id="path24" d="m 2732.62,2860.84 c -382.17,313.79 -816.37,310.8 -1012,289.1 l 442.76,1068.54 c 118.3,-11.78 468.52,-68.53 569.24,-330.82 V 2860.84 Z m -1425.03,-52.88 c 270.25,37.83 1007.27,76.92 1634.81,-473.96 v 1650.23 c -165.13,442.47 -765.39,522.16 -925.45,535.65 L 1307.59,2807.96" style="fill:#fcf4e5;fill-opacity:1;fill-rule:evenodd;stroke:none"/><path id="path26" d="m 4279.39,3149.94 c -195.63,21.7 -629.84,24.69 -1012,-289.1 v 1026.82 c 100.71,262.29 450.93,319.04 569.23,330.82 L 4279.39,3149.94 Z M 3057.6,3984.23 V 2334 c 627.54,550.88 1364.56,511.79 1634.81,473.96 L 3983.05,4519.88 C 3823,4506.39 3222.73,4426.7 3057.6,3984.23" style="fill:#fcf4e5;fill-opacity:1;fill-rule:evenodd;stroke:none"/><path id="path28" d="m 4138.8,1467.94 c 26.47,-17.52 33.72,-53.18 16.19,-79.65 -17.52,-26.47 -53.17,-33.72 -79.65,-16.2 L 2994.9,2085.77 1914.46,1372.09 c -26.47,-17.52 -62.13,-10.27 -79.65,16.2 -17.52,26.47 -10.27,62.13 16.2,79.65 359.56,237.51 809.62,526.42 1111.29,734.06 19.38,13.3 45.28,13.7 65.2,0 -32.33,21.35 758.8,-501.22 1111.3,-734.06" style="fill:#5f5647;fill-opacity:1;fill-rule:nonzero;stroke:none"/><path id="path30" d="m 3057.6,2334 c 627.54,550.88 1364.56,511.79 1634.81,473.96 L 3983.05,4519.88 C 3823,4506.39 3222.73,4426.7 3057.6,3984.23 V 2334 Z m 1714.92,343.04 c -3.32,0.77 -976.17,237.28 -1729.27,-513.56 -10.55,-12 -26.02,-19.57 -43.25,-19.57 -31.81,0 -57.6,25.79 -57.6,57.61 v 1791.86 c -0.13,6.76 0.94,13.65 3.34,20.39 l 0.1,-0.03 c 202.5,568.51 997.64,619.85 1067.27,623.28 25.12,3.19 50.27,-10.57 60.44,-35.1 l -53.22,-22.05 53.11,21.82 763.42,-1842.39 c 6,-11.71 8.04,-25.51 4.82,-39.32 -7.22,-30.98 -38.2,-50.25 -69.17,-43.02 l 0.01,0.08" style="fill:#5f5647;fill-opacity:1;fill-rule:nonzero;stroke:none"/><path id="path32" d="m 3267.39,2860.84 c 382.16,313.79 816.37,310.8 1012,289.1 l -442.77,1068.54 c -118.3,-11.78 -468.52,-68.53 -569.23,-330.82 V 2860.84 Z m 1104.35,216.2 -13.06,-56.02 c -1.79,0.42 -623.6,151.73 -1105.64,-327.91 -10.56,-12 -26.02,-19.56 -43.25,-19.56 -31.81,0 -57.6,25.79 -57.6,57.59 V 3896.8 c -0.13,6.76 0.94,13.65 3.34,20.39 l 0.1,-0.03 c 134.62,377.82 653.85,415.75 710.73,418.8 25.17,3.28 50.43,-10.5 60.61,-35.08 l -53.21,-22.06 53.1,21.83 496.15,-1197.36 c 5.99,-11.7 8.04,-25.51 4.82,-39.31 -7.2,-30.99 -38.17,-50.25 -69.16,-43.04 l 13.07,56.1" style="fill:#5f5647;fill-opacity:1;fill-rule:nonzero;stroke:none"/><path id="path34" d="m 2956.75,2163.48 c -753.09,750.84 -1725.95,514.33 -1729.27,513.56 l 0.02,-0.08 c -30.98,-7.23 -61.96,12.04 -69.18,43.02 -3.22,13.81 -1.18,27.61 4.82,39.32 l 763.43,1842.39 53.1,-21.82 -53.22,22.05 c 10.17,24.53 35.33,38.29 60.45,35.1 69.63,-3.43 864.76,-54.77 1067.27,-623.28 l 0.1,0.03 c 2.4,-6.74 3.46,-13.63 3.33,-20.39 V 2201.52 c 0,-31.82 -25.78,-57.61 -57.6,-57.61 -17.23,0 -32.7,7.57 -43.25,19.57 z m -1649.16,644.48 c 270.25,37.83 1007.27,76.92 1634.81,-473.96 v 1650.23 c -165.13,442.47 -765.39,522.16 -925.45,535.65 L 1307.59,2807.96" style="fill:#5f5647;fill-opacity:1;fill-rule:nonzero;stroke:none"/><path id="path36" d="m 2746.96,2693.11 c -482.04,479.64 -1103.84,328.33 -1105.64,327.91 l -13.05,56.02 13.06,-56.1 c -30.98,-7.21 -61.95,12.05 -69.16,43.04 -3.22,13.8 -1.16,27.61 4.83,39.31 l 496.14,1197.36 53.11,-21.83 -53.21,22.06 c 10.18,24.58 35.43,38.36 60.61,35.08 56.87,-3.05 576.11,-40.98 710.73,-418.8 l 0.1,0.03 c 2.4,-6.74 3.46,-13.63 3.33,-20.39 V 2731.14 c 0,-31.8 -25.79,-57.59 -57.6,-57.59 -17.23,0 -32.69,7.56 -43.25,19.56 z m -1026.34,456.83 c 195.63,21.7 629.83,24.69 1012,-289.1 v 1026.82 c -100.72,262.29 -450.94,319.04 -569.24,330.82 L 1720.62,3149.94" style="fill:#5f5647;fill-opacity:1;fill-rule:nonzero;stroke:none"/><path id="path38" d="M 3267.39,3887.66 V 2860.84 c 382.16,313.79 816.37,310.8 1012,289.1 l -442.77,1068.54 c -118.3,-11.78 -468.52,-68.53 -569.23,-330.82" style="fill:#fff8e1;fill-opacity:1;fill-rule:evenodd;stroke:none"/><path id="path40" d="m 2732.62,2860.84 v 1026.82 c -100.72,262.29 -450.94,319.04 -569.24,330.82 L 1720.62,3149.94 c 195.63,21.7 629.83,24.69 1012,-289.1" style="fill:#fff8e1;fill-opacity:1;fill-rule:evenodd;stroke:none"/><path id="path42" d="m 3733.27,4203.12 433.17,-1045.37 c 43.11,-1.25 81.18,-4.28 112.95,-7.81 l -442.77,1068.54 c -25.37,-2.52 -61.39,-7.11 -103.35,-15.36" style="fill:#c0bbaa;fill-opacity:1;fill-rule:evenodd;stroke:none"/><path id="path44" d="m 3878.48,4507.48 699.03,-1686.99 c 44.23,-3.54 82.84,-8.05 114.9,-12.53 l -709.36,1711.92 c -25.13,-2.13 -61.12,-5.88 -104.57,-12.4" style="fill:#fcf4e5;fill-opacity:1;fill-rule:evenodd;stroke:none"/></g></g></svg>